<?xml version="1.0" standalone="no"?>
<!DOCTYPE svg PUBLIC "-//W3C//DTD SVG 20010904//EN"
 "http://www.w3.org/TR/2001/REC-SVG-20010904/DTD/svg10.dtd">
<svg version="1.0" xmlns="http://www.w3.org/2000/svg"
 width="1024.000000pt" height="1024.000000pt" viewBox="0 0 1024.000000 1024.000000"
 preserveAspectRatio="xMidYMid meet">
<metadata>
Created by potrace 1.11, written by Peter Selinger 2001-2013
</metadata>
<g transform="translate(0.000000,1024.000000) scale(0.100000,-0.100000)"
fill="#000000" stroke="none">
<path d="M0 5120 l0 -5120 5120 0 5120 0 0 5120 0 5120 -5120 0 -5120 0 0
-5120z m6740 4240 c19 -7 47 -21 62 -32 14 -10 34 -18 45 -18 23 0 101 -62
145 -116 19 -23 54 -78 77 -123 23 -45 53 -88 65 -96 40 -27 155 -45 346 -55
590 -32 1014 -116 1401 -279 236 -99 478 -279 620 -464 75 -97 159 -253 159
-296 0 -92 -94 -51 -166 73 -63 107 -172 253 -221 295 -64 55 -233 154 -343
202 -207 89 -456 161 -710 205 -132 23 -174 25 -460 26 -342 2 -430 -6 -620
-58 -220 -59 -258 -84 -317 -206 -22 -46 -48 -115 -58 -153 -18 -70 -18 -70 8
-170 40 -158 56 -214 71 -243 8 -15 20 -57 26 -92 7 -36 25 -105 41 -155 46
-148 59 -201 59 -237 0 -18 7 -58 16 -88 8 -30 22 -77 29 -105 8 -27 19 -143
25 -256 9 -179 9 -212 -4 -250 -9 -24 -16 -69 -16 -100 0 -67 -31 -212 -54
-257 -9 -18 -26 -67 -37 -109 -10 -42 -33 -97 -49 -123 -17 -26 -30 -52 -30
-59 0 -29 -44 -93 -80 -117 -30 -20 -43 -38 -56 -78 -22 -69 -44 -104 -129
-201 -40 -45 -89 -108 -110 -139 -39 -59 -109 -124 -185 -172 -25 -16 -77 -54
-115 -84 -114 -91 -187 -134 -254 -153 -36 -10 -77 -27 -93 -38 -44 -32 -552
-151 -695 -163 -34 -3 -98 -15 -142 -26 -45 -12 -89 -19 -99 -15 -27 8 -68
-29 -82 -73 -15 -47 -176 -378 -202 -415 -59 -83 -155 -308 -204 -482 -44
-155 -44 -203 1 -695 8 -85 17 -189 20 -230 7 -76 49 -302 60 -320 6 -10 36
-162 56 -280 5 -30 16 -82 25 -115 8 -33 20 -87 25 -120 5 -33 14 -68 19 -77
6 -10 10 -29 10 -42 0 -53 56 -304 73 -324 6 -8 32 -25 59 -38 57 -29 217 -48
271 -33 17 5 61 9 97 9 54 -1 77 -7 140 -38 52 -26 79 -45 88 -65 22 -45 2
-59 -77 -55 -52 2 -66 0 -66 -11 0 -20 96 -56 170 -65 32 -3 74 -16 94 -28 19
-12 53 -31 75 -42 25 -13 48 -34 58 -55 29 -57 17 -64 -118 -66 -104 -2 -125
1 -169 20 -49 22 -198 55 -249 55 -15 0 -44 12 -65 26 -46 30 -121 44 -121 23
0 -7 27 -38 59 -68 48 -46 67 -73 100 -147 46 -103 49 -122 23 -154 -29 -35
-68 -21 -93 34 -23 52 -95 150 -209 282 -108 125 -168 185 -242 236 -33 23
-61 51 -64 64 -3 13 1 45 10 71 8 26 18 68 21 93 7 53 -18 236 -66 478 -12 60
-35 205 -49 307 -6 39 -17 93 -25 120 -22 76 -55 216 -55 238 0 22 -37 185
-56 247 -7 25 -25 101 -39 170 -14 69 -30 139 -35 156 -11 32 -14 44 -30 126
-12 61 2 142 40 228 116 264 118 268 124 395 1 28 5 55 9 61 4 7 9 67 12 135
3 68 8 137 11 152 4 19 0 34 -11 47 -14 15 -15 25 -7 52 13 43 33 126 40 160
5 35 -18 46 -50 24 -12 -9 -33 -16 -47 -16 -13 0 -69 -25 -123 -55 -54 -30
-104 -55 -112 -55 -8 0 -36 -20 -62 -44 -27 -24 -68 -53 -91 -64 -23 -12 -51
-35 -63 -52 -12 -17 -40 -38 -61 -47 -22 -8 -48 -28 -59 -43 -11 -16 -37 -39
-58 -51 -51 -31 -277 -254 -372 -368 -63 -74 -84 -107 -101 -160 -12 -36 -36
-93 -53 -126 -50 -93 -64 -142 -70 -245 -4 -52 -17 -142 -31 -200 -35 -154
-54 -257 -60 -330 -3 -36 -15 -113 -26 -170 -12 -58 -25 -143 -29 -190 -5 -47
-13 -121 -20 -165 -34 -233 -41 -292 -55 -430 -8 -82 -18 -169 -21 -191 -11
-75 33 -125 170 -192 47 -22 95 -37 141 -43 64 -8 94 -18 212 -71 48 -22 150
-127 159 -164 10 -39 -8 -50 -59 -37 -23 6 -53 9 -67 7 -14 -3 -58 7 -99 21
-41 14 -86 25 -99 25 -21 0 -23 -2 -11 -16 7 -9 38 -33 69 -54 68 -46 168
-152 187 -198 15 -36 11 -63 -12 -82 -12 -10 -27 -5 -78 29 -34 22 -85 64
-112 92 -28 29 -104 88 -170 132 -66 43 -139 97 -162 118 -46 42 -53 45 -71
27 -18 -18 -14 -71 9 -133 12 -32 18 -66 15 -80 -3 -12 1 -39 9 -58 11 -27 12
-47 5 -88 -6 -30 -12 -75 -15 -100 -3 -26 -12 -54 -19 -64 -18 -25 -46 -12
-46 21 0 14 -13 59 -30 101 -22 55 -30 91 -30 137 0 36 -15 127 -36 217 -20
85 -41 198 -47 251 -9 86 -8 102 7 140 41 97 47 116 61 183 8 39 15 93 15 120
0 28 9 118 20 200 43 337 51 391 55 406 3 9 10 58 16 110 6 52 14 128 19 169
5 41 13 134 19 205 6 72 16 162 22 200 6 39 14 151 18 250 6 132 12 190 25
219 9 23 67 90 141 165 68 69 143 153 166 186 23 33 67 89 99 125 85 98 103
127 96 156 -5 17 2 44 19 81 14 30 25 70 25 89 0 26 11 45 55 92 30 33 55 64
55 69 0 14 -69 33 -117 33 -22 0 -64 4 -94 10 -63 11 -73 11 -449 13 -428 1
-784 -9 -812 -24 -23 -12 -171 -11 -301 2 l-108 12 -97 -51 c-53 -28 -127 -62
-164 -75 -36 -14 -78 -33 -91 -42 -14 -9 -45 -18 -69 -20 -23 -2 -72 -11 -108
-21 -36 -9 -92 -18 -125 -19 -33 -1 -82 -5 -110 -9 -46 -6 -215 13 -257 29 -9
4 -24 28 -33 54 -15 46 -15 47 19 129 19 45 53 105 76 134 58 74 155 175 188
195 15 10 61 47 102 84 80 70 264 211 388 297 194 133 228 160 260 202 82 108
465 498 550 560 24 17 45 37 48 45 3 7 22 25 43 38 21 14 45 41 55 60 9 20 35
50 59 68 23 18 65 53 93 78 67 60 457 322 544 366 81 41 208 121 245 155 62
55 123 94 231 147 54 27 153 79 219 117 199 113 471 236 524 236 10 0 53 19
97 42 l79 42 200 8 c190 7 310 2 475 -22 83 -12 327 -76 360 -95 135 -77 218
-105 309 -105 44 0 56 5 91 36 32 29 45 53 67 118 39 120 38 234 -6 381 -18
61 -37 118 -42 127 -5 9 -14 52 -20 95 -6 43 -17 88 -25 100 -60 93 -61 337
-3 518 11 33 26 84 33 114 10 40 25 65 53 92 21 20 58 64 83 98 48 65 126 138
175 163 27 14 209 78 260 92 36 9 279 -2 315 -14z"/>
</g>
</svg>
